<svg width="375" height="432" viewBox="0 0 375 432" fill="none" xmlns="http://www.w3.org/2000/svg">
<path d="M247.92 386.67L206.45 308.67H208.33C222.78 308.67 236.77 306.68 250.03 302.97L294.53 386.67H247.92ZM89.33 386.67H46.67V342.93C46.67 324.01 62.01 308.67 80.93 308.67H89.33V386.67ZM136 129H199C212.81 129 224 140.19 224 154C224 167.81 212.81 179 199 179H136V129ZM350.86 386.67L294.77 282.21C335.74 254.46 362.67 207.54 362.67 154.33C362.67 69.0999 293.57 -9.15527e-05 208.33 -9.15527e-05H0V251.86C11.61 237.84 27.83 227.78 46.34 224H199V223.99C237.2 223.46 268 192.33 268 154C268 115.67 237.2 84.5399 199 84.0099V83.9999H89.33V179H46.67V44.9999H208.33C208.64 44.9899 208.941 44.9899 209.25 44.9899C269.59 44.9899 318.5 93.9499 318.5 154.34C318.5 214.74 269.59 263.7 209.25 263.7C208.941 263.7 208.64 263.7 208.33 263.691V263.67H182.52L129.33 263.5L129.42 263.67H80.93V263.78C79.58 263.71 78.21 263.67 76.83 263.67C34.4 263.67 0 298.07 0 340.5V431.67H136V308.67H153.35L194.82 386.67L218.75 431.67H374.79L350.86 386.67Z" fill="#212121"/>
</svg>
